<svg width="178" height="70" viewBox="0 0 178 70" fill="none" xmlns="http://www.w3.org/2000/svg">
<path d="M69.836 70L42.7571 27.8791L1.84521 0L28.924 42.1209L69.836 70Z" fill="#45F882"/>
<path d="M40.7537 29.9417L11.6953 10.1406L59.9865 59.8589L40.7537 29.9417Z" fill="white"/>
<path d="M11.6953 10.1406L30.9279 40.0578L59.9865 59.8589L11.6953 10.1406Z" fill="#0B0E13"/>
<path d="M1.84521 70L42.7571 42.1209L69.836 0L28.924 27.8791L1.84521 70Z" fill="#45F882"/>
<path d="M40.7537 40.0578L59.9865 10.1406L11.6953 59.8589L40.7537 40.0578Z" fill="white"/>
<path d="M59.9865 10.1406L30.9279 29.9417L11.6953 59.8589L59.9865 10.1406Z" fill="#0B0E13"/>
<path d="M15.696 53.978L20.3925 29.8016L1.63672 16.022H40.8695C44.9629 16.022 48.1406 16.8532 50.581 18.5612C53.4402 20.5643 55.015 23.6771 55.015 27.3263C55.015 29.9914 54.2777 32.3657 52.8251 34.3831C52.6948 34.5646 52.5587 34.7421 52.4184 34.9174C53.318 36.5078 53.7749 38.3087 53.7749 40.2808C53.7749 44.7901 51.7813 48.5754 48.1627 50.9415C45.0771 52.9569 41.1541 53.978 36.5016 53.978H15.696Z" fill="#45F882"/>
<path d="M18.6295 51.5028L23.0556 28.7167L9.14648 18.4976H40.8698C44.4662 18.4976 47.2012 19.1886 49.2288 20.6078C51.4409 22.1569 52.611 24.4798 52.611 27.3264C52.611 29.4491 52.0339 31.3262 50.8938 32.9085C50.425 33.5603 49.8759 34.1524 49.2529 34.6804C49.5374 34.9878 49.7978 35.3158 50.0303 35.6644C50.9179 36.9886 51.3667 38.5421 51.3667 40.281C51.3667 43.9652 49.8119 46.9295 46.8706 48.8499C44.1798 50.6096 40.6915 51.5028 36.5019 51.5028H18.6295Z" fill="#0B0E13"/>
<path d="M45.5984 34.5461C47.1751 33.8591 48.4033 32.902 49.285 31.6787C50.1666 30.4555 50.6074 29.0032 50.6074 27.3261C50.6074 25.154 49.7719 23.4831 48.1028 22.3136C46.4338 21.1439 44.0215 20.5601 40.8698 20.5601H15.4038L25.2756 27.813L21.074 49.4397H36.5019C40.3228 49.4397 43.4204 48.662 45.7987 47.1087C48.1769 45.5554 49.3651 43.2781 49.3651 40.2807C49.3651 38.9605 49.0385 37.8137 48.3833 36.8359C47.7281 35.8601 46.8005 35.0968 45.5984 34.5461ZM40.2687 42.6736C39.4672 43.2513 38.3593 43.54 36.9426 43.54H30.0503L31.1723 37.6816H38.1849C39.2008 37.6816 40.0022 37.8817 40.5893 38.2799C41.1763 38.6779 41.4708 39.2905 41.4708 40.1157C41.4708 41.2441 41.0702 42.096 40.2687 42.6736ZM41.2103 31.1837C40.4751 31.7469 39.4011 32.0294 37.9846 32.0294H32.2942L33.3762 26.4598H38.9864C41.2044 26.4598 42.3123 27.2168 42.3123 28.7289C42.3123 29.8016 41.9457 30.6206 41.2103 31.1837Z" fill="white"/>
<g opacity="0.2">
<path d="M38.742 22.2104C41.8937 22.2104 44.3059 22.7941 45.975 23.9638C47.644 25.1334 48.4795 26.8043 48.4795 28.9765C48.4795 30.6535 48.0387 32.1057 47.1571 33.329C46.9688 33.591 46.7604 33.8386 46.54 34.0758C47.67 33.4445 48.5877 32.6463 49.2829 31.6787C50.1646 30.4555 50.6054 29.0032 50.6054 27.3261C50.6054 25.154 49.7698 23.4831 48.1008 22.3136C46.4319 21.1439 44.0195 20.5601 40.8678 20.5601H15.4038L17.6499 22.2104H38.742Z" fill="#0B0E13"/>
<path d="M31.2485 28.11L30.1665 33.6795H35.8569C37.2734 33.6795 38.3473 33.397 39.0827 32.8338C39.4493 32.5532 39.7238 32.2088 39.9062 31.8004C39.3552 31.9509 38.716 32.0293 37.9827 32.0293H32.2924L33.0538 28.11H31.2485Z" fill="#0B0E13"/>
<path d="M45.8991 34.6945C45.2098 35.2885 44.4044 35.7897 43.4727 36.1962C44.6749 36.747 45.6025 37.5102 46.2577 38.4859C46.9129 39.4616 47.2395 40.6106 47.2395 41.9308C47.2395 44.1751 46.5723 46.0152 45.2399 47.4489C45.4303 47.3395 45.6165 47.2261 45.7989 47.1085C48.1772 45.5552 49.3653 43.2779 49.3653 40.2806C49.3653 38.9604 49.0387 37.8134 48.3835 36.8356C47.7845 35.9424 46.955 35.2308 45.8991 34.6945Z" fill="#0B0E13"/>
<path d="M27.9224 45.1902H34.8148C36.2313 45.1902 37.3394 44.9015 38.1409 44.3238C38.5376 44.0371 38.8361 43.6844 39.0364 43.2615C38.4334 43.4451 37.7382 43.54 36.9427 43.54H30.0503L30.8557 39.3318H29.0444L27.9224 45.1902Z" fill="#0B0E13"/>
</g>
<text x="52" y="50" fill="#FFFFFF" font-family="Rajdhani, Goldman, sans-serif" font-weight="700" font-size="25" letter-spacing="0.05">eyondPlay</text>
</svg>